<svg width="68" height="71" viewBox="0 0 68 71" fill="none" xmlns="http://www.w3.org/2000/svg">
<g clip-path="url(#clip0_4015_141)">
<path fill-rule="evenodd" clip-rule="evenodd" d="M-1582 10C-1582 4.47715 -1577.52 0 -1572 0H328C333.523 0 338 4.47715 338 10V94.99C338 94.9955 337.996 95 337.99 95V95C337.985 95 337.98 94.9957 337.98 94.9903C337.45 81.6513 326.469 71 313 71H54.519C49.4555 71 45.2962 67.1673 43.8122 62.3261C37.5424 41.8723 18.508 27 -4 27H-1031C-1053.51 27 -1072.54 41.8723 -1078.81 62.3261C-1080.3 67.1673 -1084.46 71 -1089.52 71H-1557C-1570.47 71 -1581.45 81.6513 -1581.98 94.9903C-1581.98 94.9957 -1581.98 95 -1581.99 95V95C-1582 95 -1582 94.9955 -1582 94.99V10Z" fill="#7027E2"/>
</g>
<defs>
<clipPath id="clip0_4015_141">
<rect width="68" height="71" fill="white"/>
</clipPath>
</defs>
</svg>
