<svg width="26" height="24" viewBox="0 0 26 24" fill="none" xmlns="http://www.w3.org/2000/svg">
<g clip-path="url(#clip0_4015_141)">
<path fill-rule="evenodd" clip-rule="evenodd" d="M-1894 -61C-1894 -66.5228 -1889.52 -71 -1884 -71H16C21.5228 -71 26 -66.5228 26 -61V23.99C26 23.9955 25.9955 24 25.99 24V24C25.9846 24 25.9802 23.9957 25.98 23.9903C25.4501 10.6513 14.4689 0 1 0H-257.481C-262.545 0 -266.704 -3.8327 -268.188 -8.67391C-274.458 -29.1277 -293.492 -44 -316 -44H-1343C-1365.51 -44 -1384.54 -29.1277 -1390.81 -8.6739C-1392.3 -3.8327 -1396.46 0 -1401.52 0H-1869C-1882.47 0 -1893.45 10.6513 -1893.98 23.9903C-1893.98 23.9957 -1893.98 24 -1893.99 24V24C-1894 24 -1894 23.9955 -1894 23.99V-61Z" fill="#7027E2"/>
</g>
<defs>
<clipPath id="clip0_4015_141">
<rect width="26" height="24" fill="white"/>
</clipPath>
</defs>
</svg>
