<svg width="1143" height="95" viewBox="0 0 1143 95" fill="none" xmlns="http://www.w3.org/2000/svg">
<g clip-path="url(#clip0_4015_141)">
<path fill-rule="evenodd" clip-rule="evenodd" d="M-493 10C-493 4.47715 -488.523 0 -483 0H1417C1422.52 0 1427 4.47715 1427 10V94.99C1427 94.9955 1427 95 1426.99 95V95C1426.98 95 1426.98 94.9957 1426.98 94.9903C1426.45 81.6513 1415.47 71 1402 71H1143.52C1138.46 71 1134.3 67.1673 1132.81 62.3261C1126.54 41.8723 1107.51 27 1085 27H58C35.492 27 16.4576 41.8723 10.1878 62.3261C8.70382 67.1673 4.54451 71 -0.519033 71H-468C-481.469 71 -492.45 81.6513 -492.98 94.9903C-492.98 94.9957 -492.985 95 -492.99 95V95C-492.996 95 -493 94.9955 -493 94.99V10Z" fill="#7027E2"/>
</g>
<defs>
<clipPath id="clip0_4015_141">
<rect width="1143" height="95" fill="white"/>
</clipPath>
</defs>
</svg>
