<svg width="68" height="71" viewBox="0 0 68 71" fill="none" xmlns="http://www.w3.org/2000/svg">
<g clip-path="url(#clip0_4015_141)">
<path fill-rule="evenodd" clip-rule="evenodd" d="M-487 10C-487 4.47715 -482.523 0 -477 0H1423C1428.52 0 1433 4.47715 1433 10V94.99C1433 94.9955 1433 95 1432.99 95V95C1432.98 95 1432.98 94.9957 1432.98 94.9903C1432.45 81.6513 1421.47 71 1408 71H1149.52C1144.46 71 1140.3 67.1673 1138.81 62.3261C1132.54 41.8723 1113.51 27 1091 27H64C41.492 27 22.4576 41.8723 16.1878 62.3261C14.7038 67.1673 10.5445 71 5.48097 71H-462C-475.469 71 -486.45 81.6513 -486.98 94.9903C-486.98 94.9957 -486.985 95 -486.99 95V95C-486.996 95 -487 94.9955 -487 94.99V10Z" fill="#7027E2"/>
</g>
<defs>
<clipPath id="clip0_4015_141">
<rect width="68" height="71" fill="white"/>
</clipPath>
</defs>
</svg>
